<?xml version="1.0" encoding="utf-8"?>
<!-- Generator: Adobe Illustrator 16.0.0, SVG Export Plug-In . SVG Version: 6.00 Build 0)  -->
<!DOCTYPE svg PUBLIC "-//W3C//DTD SVG 1.1//EN" "http://www.w3.org/Graphics/SVG/1.1/DTD/svg11.dtd">
<svg version="1.1" id="Calque_1" xmlns="http://www.w3.org/2000/svg" xmlns:xlink="http://www.w3.org/1999/xlink" x="0px" y="0px"
	 width="200px" height="200px" viewBox="0 0 200 200" enable-background="new 0 0 200 200" xml:space="preserve">
<circle fill="#FFFFFF" cx="100" cy="100" r="100"/>
<g>
	<path fill="#5D5E5E" d="M47.518,97.75c39.598,43.998,73.538,36.455,104.965,0C122.941,66.323,83.973,60.666,47.518,97.75z
		 M100,122.007c-12.154,0-22.008-9.853-22.008-22.007S87.846,77.993,100,77.993s22.008,9.854,22.008,22.008
		S112.154,122.007,100,122.007z"/>
	<path fill="#5D5E5E" d="M107.687,96.488c-4.439,0-8.202-2.884-9.526-6.878c-4.905,0.87-8.633,5.152-8.633,10.308
		c0,5.784,4.688,10.473,10.473,10.473s10.473-4.688,10.473-10.473c0-1.286-0.233-2.519-0.658-3.658
		C109.128,96.408,108.417,96.488,107.687,96.488z"/>
</g>
</svg>
