<?xml version="1.0" encoding="utf-8"?>
<!-- Generator: Adobe Illustrator 16.0.0, SVG Export Plug-In . SVG Version: 6.00 Build 0)  -->
<!DOCTYPE svg PUBLIC "-//W3C//DTD SVG 1.1//EN" "http://www.w3.org/Graphics/SVG/1.1/DTD/svg11.dtd">
<svg version="1.1" id="Calque_2" xmlns="http://www.w3.org/2000/svg" xmlns:xlink="http://www.w3.org/1999/xlink" x="0px" y="0px"
	 width="192.22px" height="31.521px" viewBox="0 0 192.22 31.521" enable-background="new 0 0 192.22 31.521" xml:space="preserve">
<g>
	<path fill-rule="evenodd" clip-rule="evenodd" fill="#262221" d="M2.962,10.743c-0.677,1.367-1.353,2.735-2.03,4.104
		c-0.886-1.035-0.812-2.32-0.927-3.556c-0.042-0.456,0.19-0.614,0.62-0.599C1.404,10.72,2.183,10.727,2.962,10.743z"/>
	<g>
		<path fill="#FFFFFF" d="M51.445,15.449h3.186v6.45c-1.782,1.961-4.328,2.941-7.639,2.941c-2.79,0-5.124-0.917-7.004-2.752
			c-1.881-1.836-2.82-4.156-2.82-6.964c0-2.807,0.957-5.146,2.874-7.018c1.916-1.871,4.232-2.807,6.95-2.807
			c2.717,0,4.975,0.792,6.773,2.376l-1.699,2.429c-0.738-0.63-1.48-1.067-2.228-1.31s-1.614-0.364-2.604-0.364
			c-1.907,0-3.509,0.616-4.804,1.849c-1.296,1.232-1.943,2.852-1.943,4.858c0,2.006,0.63,3.616,1.89,4.831s2.783,1.822,4.574,1.822
			c1.79,0,3.289-0.387,4.494-1.16V15.449z"/>
		<path fill="#FFFFFF" d="M70.392,22.695c-1.44,1.431-3.239,2.146-5.397,2.146c-2.16,0-3.959-0.715-5.398-2.146
			c-1.44-1.431-2.159-3.179-2.159-5.249c0-2.068,0.719-3.818,2.159-5.249c1.439-1.431,3.238-2.146,5.398-2.146
			c2.158,0,3.957,0.715,5.397,2.146c1.438,1.431,2.159,3.181,2.159,5.249C72.551,19.517,71.83,21.265,70.392,22.695z M61.741,20.834
			c0.854,0.872,1.938,1.308,3.253,1.308c1.312,0,2.396-0.436,3.252-1.308c0.854-0.873,1.282-2.003,1.282-3.388
			s-0.429-2.514-1.282-3.387c-0.855-0.873-1.939-1.31-3.252-1.31c-1.314,0-2.398,0.437-3.253,1.31s-1.282,2.002-1.282,3.387
			S60.887,19.961,61.741,20.834z"/>
		<path fill="#FFFFFF" d="M86.989,24.626h-3.185V5.759h4.966l5.695,11.85l5.695-11.85h4.938v18.867h-3.185V9.89l-6.585,13.09h-1.782
			L86.989,9.89V24.626z"/>
		<path fill="#FFFFFF" d="M121.914,22.695c-1.44,1.431-3.24,2.146-5.399,2.146c-2.158,0-3.958-0.715-5.398-2.146
			c-1.438-1.431-2.158-3.179-2.158-5.249c0-2.068,0.721-3.818,2.158-5.249c1.44-1.431,3.24-2.146,5.398-2.146
			c2.159,0,3.959,0.715,5.399,2.146c1.438,1.431,2.158,3.181,2.158,5.249C124.072,19.517,123.353,21.265,121.914,22.695z
			 M113.263,20.834c0.855,0.872,1.939,1.308,3.252,1.308c1.314,0,2.398-0.436,3.253-1.308c0.854-0.873,1.282-2.003,1.282-3.388
			s-0.428-2.514-1.282-3.387s-1.938-1.31-3.253-1.31c-1.312,0-2.396,0.437-3.252,1.31c-0.854,0.873-1.281,2.002-1.281,3.387
			S112.409,19.961,113.263,20.834z"/>
		<path fill="#FFFFFF" d="M135.191,10.052c1.926,0,3.572,0.666,4.94,1.996c1.366,1.332,2.051,3.104,2.051,5.318
			c0,2.211-0.68,4.012-2.037,5.396c-1.359,1.387-2.943,2.078-4.751,2.078c-1.809,0-3.432-0.791-4.872-2.375v2.16H127.5V4.599h3.022
			v8.178C131.711,10.96,133.267,10.052,135.191,10.052z M130.469,17.474c0,1.367,0.414,2.487,1.242,3.36
			c0.827,0.872,1.835,1.308,3.022,1.308s2.223-0.431,3.104-1.295c0.882-0.863,1.323-1.983,1.323-3.36
			c0-1.376-0.433-2.519-1.295-3.427c-0.864-0.908-1.899-1.363-3.104-1.363c-1.207,0-2.223,0.455-3.05,1.363
			C130.883,14.968,130.469,16.106,130.469,17.474z"/>
		<path fill="#FFFFFF" d="M145.826,7.406c-0.378-0.378-0.566-0.827-0.566-1.349c0-0.523,0.188-0.973,0.566-1.35
			c0.378-0.379,0.826-0.568,1.35-0.568c0.521,0,0.972,0.189,1.35,0.568c0.377,0.377,0.566,0.826,0.566,1.35
			c0,0.521-0.189,0.971-0.566,1.349c-0.378,0.378-0.828,0.566-1.35,0.566C146.652,7.973,146.204,7.784,145.826,7.406z
			 M148.659,24.626h-3.022V10.267h3.022V24.626z"/>
		<path fill="#FFFFFF" d="M156.055,24.626h-3.023V4.599h3.023V24.626z"/>
		<path fill="#FFFFFF" d="M160.616,7.406c-0.379-0.378-0.568-0.827-0.568-1.349c0-0.523,0.189-0.973,0.568-1.35
			c0.377-0.379,0.826-0.568,1.35-0.568c0.521,0,0.971,0.189,1.349,0.568c0.378,0.377,0.566,0.826,0.566,1.35
			c0,0.521-0.188,0.971-0.566,1.349s-0.828,0.566-1.349,0.566C161.442,7.973,160.993,7.784,160.616,7.406z M163.45,24.626h-3.024
			V10.267h3.024V24.626z"/>
		<path fill="#FFFFFF" d="M171.545,12.696v7.287c0,0.684,0.181,1.228,0.541,1.633c0.358,0.404,0.863,0.607,1.512,0.607
			c0.646,0,1.268-0.314,1.861-0.945l1.242,2.133c-1.062,0.953-2.235,1.43-3.522,1.43c-1.286,0-2.385-0.444-3.292-1.336
			c-0.909-0.891-1.363-2.092-1.363-3.604v-7.205h-1.809v-2.43h1.809V5.759h3.021v4.508h3.779v2.43H171.545z"/>
		<path fill="#FFFFFF" d="M180.911,30.347c-1.313,0-2.501-0.477-3.563-1.43l1.378-2.457c0.629,0.594,1.282,0.891,1.956,0.891
			c0.675,0,1.223-0.242,1.647-0.729c0.422-0.484,0.633-1.016,0.633-1.592c0-0.252-1.934-5.173-5.803-14.764h3.239l4.292,10.58
			l4.291-10.58h3.238l-6.963,17.058c-0.415,0.937-1.009,1.674-1.781,2.214C182.702,30.078,181.848,30.347,180.911,30.347z"/>
	</g>
	<path fill-rule="evenodd" clip-rule="evenodd" fill="#FFFFFF" d="M34.607,6.472c0,0-0.396,9.049-3.007,13.798
		c-0.854,1.505-3.849,4.597-3.849,4.597s-3.623,3.961-12.072,5.93c1.316-7.789,1.541-10.607,2.312-12.031
		c1.395-2.576,4.278-5.553,5.098-6.203C23.992,11.845,34.607,6.472,34.607,6.472z"/>
	<path fill-rule="evenodd" clip-rule="evenodd" fill="#629CAC" d="M29.466,2.291c0,0,1.89,8.856,0.558,14.109
		c-0.449,1.672-2.57,5.417-2.57,5.417s-2.512,4.745-10.193,8.773c-0.684-7.87-1.175-10.654-0.786-12.227
		c0.702-2.844,2.745-6.449,3.374-7.284C20.541,10.159,29.466,2.291,29.466,2.291z"/>
	<path fill-rule="evenodd" clip-rule="evenodd" fill="#F08951" d="M2.962,10.743c2.76,0.426,4.79-0.25,5.884-3.174
		c0.621-1.658,2.273-2.322,4.086-2.295c1.814-0.018,3.637,0.2,5.44-0.178c0.816-0.061,1.143-0.748,1.577-1.27
		c0.979-1.178,1.832-2.467,3.096-3.381c0.279-0.201,0.57-0.492,0.94-0.314c0.396,0.191,0.295,0.627,0.252,0.941
		c-0.384,2.783,0.585,5.047,2.073,7.418c3.237,5.159,3.057,10.582,0.02,15.828c-2.866,4.947-7.502,6.826-13.141,7.201
		c1.207-1.982,2.673-3.648,3.119-5.838c0.449-0.82,0.6-1.73,0.706-2.633c0.484-4.111-1.978-7.596-6.702-6.92
		c-1.98,0.283-3.957,0.746-5.986,0.609c-1.286-0.354-2.566-0.719-3.395-1.893C1.609,13.479,2.285,12.11,2.962,10.743z M13.48,11.787
		c-0.047-0.632-0.396-1.056-1.055-1.076c-0.656-0.021-1.087,0.375-1.109,1.034c-0.023,0.663,0.379,1.078,1.04,1.104
		C13.021,12.873,13.396,12.478,13.48,11.787z"/>
	<path fill-rule="evenodd" clip-rule="evenodd" fill="#262221" d="M4.326,16.739c2.029,0.137,4.006-0.326,5.986-0.609
		c4.725-0.676,7.187,2.809,6.702,6.92c-0.106,0.902-0.257,1.812-0.706,2.633c-1.428-3.245-4.251-5.01-7.162-6.635
		C7.595,18.18,5.936,17.503,4.326,16.739z"/>
	<path fill-rule="evenodd" clip-rule="evenodd" fill="#262221" d="M18.372,5.097c-1.804,0.378-3.626,0.16-5.44,0.178
		c1.27-1.725,2.502-3.48,4.179-4.85c0.292-0.238,0.623-0.568,1.03-0.357c0.381,0.195,0.211,0.629,0.216,0.96
		C18.375,2.384,18.369,3.739,18.372,5.097z"/>
	<path fill-rule="evenodd" clip-rule="evenodd" fill="#262221" d="M13.48,11.787c-0.085,0.69-0.459,1.086-1.124,1.062
		c-0.661-0.025-1.063-0.44-1.04-1.104c0.022-0.659,0.453-1.055,1.109-1.034C13.084,10.731,13.434,11.155,13.48,11.787z"/>
</g>
</svg>
