<?xml version="1.0" encoding="utf-8"?>
<!-- Generator: Adobe Illustrator 16.0.0, SVG Export Plug-In . SVG Version: 6.00 Build 0)  -->
<!DOCTYPE svg PUBLIC "-//W3C//DTD SVG 1.1//EN" "http://www.w3.org/Graphics/SVG/1.1/DTD/svg11.dtd">
<svg version="1.1" id="Calque_10" xmlns="http://www.w3.org/2000/svg" xmlns:xlink="http://www.w3.org/1999/xlink" x="0px" y="0px"
	 width="239.548px" height="273.566px" viewBox="0 0 239.548 273.566" enable-background="new 0 0 239.548 273.566"
	 xml:space="preserve">
<g>
	
		<linearGradient id="SVGID_1_" gradientUnits="userSpaceOnUse" x1="-1492.3384" y1="397.0955" x2="-1551.5547" y2="449.6082" gradientTransform="matrix(0.9974 0.0722 -0.0722 0.9974 1747.2861 -160.5997)">
		<stop  offset="0.0068" style="stop-color:#D99762"/>
		<stop  offset="1" style="stop-color:#CF8042"/>
	</linearGradient>
	<path fill="url(#SVGID_1_)" d="M204.224,169.564c0,0,0.85,1.871,1.352,4.357c-2.602-1.127-6.566-0.643-10.77,2.182
		c-11.807,7.936-31.737,82.469-31.737,82.469l-19.18-0.023l-1.361-0.307c0,0-9.015-133.269,21.928-159.688
		c24.583-20.991,75.454-13.385,75.091,30.137c-2.215-7.421-6.531-18.082-14.408-25.835c8.52,16.518,9.859,30.811,7.803,39.938
		c-0.748-8.113-2.002-11.45-3.662-16.477c1.492,12.552-0.824,21.144-0.824,21.144s-3.332-4.9-4.152-6.659
		c0.273,7.363-0.027,14.739-3.295,26.387c-0.18-14.145-3.379-26.958-14.975-48.251c4.742,18.675,9.479,32.326,6.508,55.033
		c-1.451-7.871-4.125-10.619-4.125-10.619s0.84,5.482,0.027,11.312C207.74,171.429,204.224,169.564,204.224,169.564z"/>
	<path fill="#EED4B1" d="M239.218,133.991c-5.648,47.975-23.41,50.561-39.576,57.514c10.891-8.242,10.645-15.549,5.936-17.588
		c-0.502-2.484-1.352-4.355-1.352-4.355s3.516,1.865,4.219,5.1c0.812-5.83-0.029-11.312-0.029-11.312s2.674,2.748,4.125,10.619
		c2.971-22.707-1.766-36.358-6.506-55.033c11.596,21.293,14.793,34.107,14.975,48.251c3.266-11.65,3.566-19.026,3.293-26.387
		c0.82,1.759,4.154,6.659,4.154,6.659s2.314-8.592,0.824-21.144c1.658,5.028,2.912,8.365,3.662,16.477
		c2.055-9.127,0.717-23.419-7.805-39.938c7.877,7.753,12.195,18.414,14.408,25.835C239.531,130.407,239.431,132.171,239.218,133.991
		z"/>
	<g>
		
			<linearGradient id="SVGID_2_" gradientUnits="userSpaceOnUse" x1="-1610.7412" y1="611.7126" x2="-1619.3059" y2="616.74" gradientTransform="matrix(1 0 0 1 1793.3252 -487.1836)">
			<stop  offset="0.1188" style="stop-color:#D2BB90"/>
			<stop  offset="0.9307" style="stop-color:#C3A874"/>
		</linearGradient>
		<path fill="url(#SVGID_2_)" d="M179.896,152.824c-13.29-19.968-17.989-28.585-17.989-28.585l-1.726-13.279
			c0,0,9.629-7.722,17.828,0.435c5.83,5.797,2.697,9.603,5.359,13.913C186.033,129.615,199.82,143.076,179.896,152.824z"/>
		<circle fill="#A5833D" cx="173.655" cy="114.684" r="1.88"/>
		<circle fill="#A5833D" cx="184.935" cy="140.378" r="1.881"/>
		
			<linearGradient id="SVGID_3_" gradientUnits="userSpaceOnUse" x1="-1617.4751" y1="622.1042" x2="-1634.4198" y2="627.1318" gradientTransform="matrix(1 0 0 1 1793.3252 -487.1836)">
			<stop  offset="0.1188" style="stop-color:#D2BB90"/>
			<stop  offset="0.9307" style="stop-color:#C3A874"/>
		</linearGradient>
		<path fill="url(#SVGID_3_)" d="M172.171,178.982l-22.858-38.928l-6.541-31.283l1.186-7.359
			c4.535,1.456,15.188,5.746,22.644,15.665c8.338,11.094,10.617,24.379,11.049,27.488
			C178.056,147.461,179.568,163.74,172.171,178.982z"/>
		<path fill="#A5833D" d="M173.257,180.83l-1.084-1.846c7.395-15.242,5.883-31.523,5.477-34.418
			c-0.432-3.109-2.711-16.391-11.049-27.488c-7.456-9.919-18.108-14.209-22.644-15.665l0.164-1.021c0,0,23.904,3.539,33.144,34.077
			C185.291,160.974,173.257,180.828,173.257,180.83z"/>
		<g>
			<path fill="none" stroke="#B69758" stroke-linecap="round" stroke-miterlimit="10" d="M170.578,175.392
				c-0.516,0.955-0.854,1.438-0.854,1.438"/>
			<path fill="none" stroke="#B69758" stroke-linecap="round" stroke-miterlimit="10" stroke-dasharray="6.1744,6.1744" d="
				M144.257,104.593c4.744,1.895,13.776,6.394,20.349,15.071c9.312,12.29,11.921,26.626,10.731,38.73
				c-0.604,6.129-2.035,10.775-3.301,13.873"/>
			<path fill="none" stroke="#B69758" stroke-linecap="round" stroke-miterlimit="10" d="M141.05,103.462
				c0,0,0.583,0.161,1.591,0.52"/>
		</g>
	</g>
	
		<linearGradient id="SVGID_4_" gradientUnits="userSpaceOnUse" x1="-1668.1206" y1="658.7302" x2="-1690.7456" y2="628.0052" gradientTransform="matrix(1 0 0 1 1793.3252 -487.1836)">
		<stop  offset="0.0024" style="stop-color:#E2AA7D"/>
		<stop  offset="1" style="stop-color:#DC9A64"/>
	</linearGradient>
	<path fill="url(#SVGID_4_)" d="M136.725,79.874l-48.74,61.312c0,0-34.076,16.462-26.535,49.703
		c7.543,33.238,22.066,82.676,22.066,82.676l77.68-11.172c0,0,0.25,1.396,8.07-44.689c7.82-46.088,5.025-69.269-3.912-74.483
		c-8.938-5.213-24.113-16.363-18.713-42.432c5.398-26.067,17.877-34.486,17.877-34.486L136.725,79.874z"/>
	<path fill="#EED4B1" d="M110.226,269.722l-26.712,3.844c0,0-14.523-49.441-22.064-82.678c-3.267-14.396,1.277-25.645,7.477-33.773
		c4.432-1.131,9.912-1.936,15.707-1.373c-7.541,2.049-8.24,4.422-8.24,4.422s18.436-5.865,28.211,10.195
		c-6.982-4.189-13.965-5.166-13.965-5.166s13.918,3.537,17.27,17.969c-3.27-4.607-7.301-8.492-8.799-9.879
		c-0.379-0.369-0.603-0.549-0.603-0.549s0.224,0.197,0.603,0.549c2.176,2.123,9.535,10.684,10.01,29.709
		c0.559,22.346,1.49,35.477,1.49,42.551c-1.117-10.895-2.794-14.338-2.794-14.338s2.235,15.547,2.142,25.789
		C109.913,261.906,110.062,266.388,110.226,269.722z"/>
	<path fill="#B69758" d="M153.839,132.776c0,0-4.963,0.855-8.224,2.904c-3.258,2.049-16.478,6.981-32.492,27.279
		c-16.014,20.297-33.518,21.785-33.518,21.785v2.098c0,0,18.715-1.68,33.936-21.09c21.617-27.567,41.787-30.935,41.787-30.935
		C157.499,131.534,153.839,132.776,153.839,132.776z"/>
	<path fill="#B69758" d="M74.788,186.908c-13.149-13.639-9.611-25.951-9.611-25.951s0.189-2.873,2.234-1.984
		c-4.289,11.592,6.998,25.377,6.998,25.377S75.882,185.373,74.788,186.908z"/>
	<path fill="#B69758" d="M78.976,208.275c1.05-15.152-1.604-18.688-1.604-18.688l1.453-1.133
		C82.511,197.613,80.375,208.416,78.976,208.275z"/>
	<path fill="#B69758" d="M74.243,207.717c-1.049-15.15,1.605-18.689,1.605-18.689l-1.453-1.131
		C70.708,197.054,72.844,207.857,74.243,207.717z"/>
	
		<radialGradient id="SVGID_5_" cx="-2207.103" cy="672.1218" r="2.5051" gradientTransform="matrix(1.1945 0 0 1 2713.4631 -487.1836)" gradientUnits="userSpaceOnUse">
		<stop  offset="0.0068" style="stop-color:#B69758"/>
		<stop  offset="1" style="stop-color:#A5833D"/>
	</radialGradient>
	<ellipse fill="url(#SVGID_5_)" cx="77.199" cy="186.289" rx="3.104" ry="3.957"/>
	<path fill="#DC9A64" d="M150.833,190.892c-18.621,26.068-21.786,28.861-21.786,28.861s-8.659,12.568-35.752,2.699
		c-27.096-9.867-64.895-23.926-64.895-23.926s-5.738-2.5-11.777-3.057c-7.586-0.699-15.445-5.365-16.342-10.025
		c-1.394-7.264,2.312-7.711,2.312-7.711s-2.869-8.77,4.112-9.635c-1.579-8.195,9.125-9.611,13.968-6.354
		c0.008-6.451-0.489-8.328-0.56-10.053c-0.187-4.578,2.793-16.201,12.94-12.57c10.149,3.631,0.372,12.416-1.954,18.731
		c-2.328,6.314-0.839,13.764,1.211,16.557c2.047,2.793,4.375,6.982,13.219,10.24c8.848,3.26,42.086,14.525,50.463,15.457
		c8.379,0.93,13.222-1.396,16.48-5.121c3.259-3.725,28.676-38.174,28.676-38.174s10.776-20.429,22.229-9.731
		C172.64,155.738,169.451,164.82,150.833,190.892z"/>
	
		<linearGradient id="SVGID_6_" gradientUnits="userSpaceOnUse" x1="-1639.6431" y1="653.4138" x2="-1622.8842" y2="641.3099" gradientTransform="matrix(1 0 0 1 1793.3252 -487.1836)">
		<stop  offset="0.0068" style="stop-color:#D99762"/>
		<stop  offset="1" style="stop-color:#CF8042"/>
	</linearGradient>
	<path fill="url(#SVGID_6_)" d="M150.833,190.886c0,0,8.127-22.57,0-29.605c-7.559-6.545-13.391,0.572-14.172,1.602
		c2.695-3.639,4.488-6.07,4.488-6.07s10.776-20.429,22.229-9.731C172.64,155.738,169.451,164.82,150.833,190.886z"/>
	
		<linearGradient id="SVGID_7_" gradientUnits="userSpaceOnUse" x1="-1786.52" y1="662.7126" x2="-1783.3074" y2="657.9286" gradientTransform="matrix(1 0 0 1 1793.3252 -487.1836)">
		<stop  offset="0.0068" style="stop-color:#D99762"/>
		<stop  offset="1" style="stop-color:#CF8042"/>
	</linearGradient>
	<path fill="url(#SVGID_7_)" d="M13.793,176.187c-7.083,2.148-10.391-1.232-11.721-3.402c0.258-2.152,1.369-4.285,4.633-4.688
		C6.706,168.097,8.208,173.92,13.793,176.187z"/>
	
		<linearGradient id="SVGID_8_" gradientUnits="userSpaceOnUse" x1="-1777.0122" y1="651.6511" x2="-1777.9851" y2="655.4612" gradientTransform="matrix(1 0 0 1 1793.3252 -487.1836)">
		<stop  offset="0.0068" style="stop-color:#D99762"/>
		<stop  offset="1" style="stop-color:#CF8042"/>
	</linearGradient>
	<path fill="url(#SVGID_8_)" d="M13.793,165.332c-0.398-0.998-0.663-3.248-1.949-4.861c2.98-0.471,6.551-0.252,8.827,1.275v7.146
		C20.671,168.892,14.77,167.775,13.793,165.332z"/>
	
		<linearGradient id="SVGID_9_" gradientUnits="userSpaceOnUse" x1="-1789.583" y1="673.5544" x2="-1787.6631" y2="667.6199" gradientTransform="matrix(1 0 0 1 1793.3252 -487.1836)">
		<stop  offset="0.0068" style="stop-color:#D99762"/>
		<stop  offset="1" style="stop-color:#CF8042"/>
	</linearGradient>
	<path fill="url(#SVGID_9_)" d="M0.104,184.314c-0.111-0.838-0.15-1.578-0.129-2.217c0.133-3.65,2.137-4.266,2.543-4.354
		c0.047-0.01,0.074-0.014,0.074-0.014s-0.129-0.396-0.268-1.025l0.277,1.01c0,0,1.869,6.191,6.756,8.217
		C5.047,187.043,2.044,185.836,0.104,184.314z"/>
	<path fill="#EED4B1" d="M35.39,144.395c0,0,2.761-6.792,1.649-7.393c-1.111-0.596-5.491,5.138-5.491,5.138
		C31.675,145.96,35.39,144.395,35.39,144.395z"/>
	<path fill="#E2AA7D" d="M149.573,88.239c15.502-8.937,26.253-9.355,26.253-9.355c-6.422-0.839-8.935-1.117-22.062,0.141
		c8.519-5.449,20.527-8.101,20.527-8.101s0,0-14.523,0.978c7.821-4.189,20.25-7.402,34.496-10.335
		c-12.291-3.211-29.188,1.676-29.188,1.676s9.356-3.35,16.479-6.703c-1.396,0.7-8.379,0.979-8.379,0.979s7.541-3.631,14.244-6.146
		c-4.189,0.142-12.848,0.56-19.132-3.491c-6.285-4.05-10.056-14.664-9.077-24.021c0.978-9.356,7.68-17.317,7.68-17.317
		s-6.144,4.329-11.031,11.731c1.396-4.051,3.631-9.357,12.427-18.156c-8.657,3.353-19.132,14.105-25.275,21.229
		c-6.145,7.122-16.619,18.572-16.619,18.572s-7.821-5.724-12.71-14.104c-4.887-8.379-1.116-23.882-1.116-23.882
		s-5.167,6.005-5.866,14.245c-0.698-1.815-0.978-6.004,0.699-12.988c-4.75,10.475-17.238,26.944-22.906,34.217
		c-5.912,7.588-11.828,11.851-16.34,15.711c-1.734-2.254-1.664-3.885-2.885-5.33c0.467,2.327,0.092,8.193,0.092,8.193
		s-1.676-6.565-5.586-12.43c1.814,3.631,2.234,9.916,2.234,9.916s-1.536-3.91-4.189-6.703c3.352,5.305,8.101,26.812,6.611,44.688
		c-1.492,17.874-9.5,37.058-12.479,48.413c-2.979,11.36-2.047,18.25,11.918,20.298c13.966,2.047,19.181-0.002,24.394-4.654
		c12.103,1.303,16.759-2.98,20.483-9.498c3.725-6.519,17.504-31.098,26.628-44.503c9.124-13.407,23.647-13.035,23.647-13.035
		S157.395,87.543,149.573,88.239z"/>
	
		<linearGradient id="SVGID_10_" gradientUnits="userSpaceOnUse" x1="-1639.9868" y1="512.364" x2="-1656.187" y2="541.7848" gradientTransform="matrix(1 0 0 1 1793.3252 -487.1836)">
		<stop  offset="0" style="stop-color:#D99762"/>
		<stop  offset="0.9742" style="stop-color:#CF8042"/>
	</linearGradient>
	<path fill="url(#SVGID_10_)" d="M128.556,52.699c3.979-3.911,5.726-6.076,9.636-11.521c3.91-5.449,11.172-15.435,11.172-15.435
		s-2.094,4.468-2.442,7.612c1.046-2.096,2.724-5.03,4.608-8.521c-4.469,13.898,1.535,26.257,1.535,26.257s-4.887-0.418-14.244,1.258
		c-9.358,1.676-18.436,7.262-18.436,7.262S124.576,56.61,128.556,52.699z"/>
	<path d="M124.901,72.168c0.049-0.254,0.123-0.629,0.14-1.113c0.007-0.246,0.018-0.517-0.012-0.811
		c-0.011-0.147-0.017-0.302-0.038-0.46c-0.03-0.157-0.061-0.321-0.092-0.489c-0.045-0.345-0.19-0.685-0.3-1.058
		c-0.141-0.361-0.326-0.731-0.535-1.104c-0.122-0.18-0.245-0.359-0.371-0.543l-0.193-0.279l-0.234-0.253
		c-0.159-0.17-0.321-0.341-0.487-0.518c-0.164-0.178-0.373-0.306-0.561-0.463c-0.195-0.15-0.392-0.307-0.592-0.462
		c-0.218-0.126-0.437-0.253-0.66-0.381c-0.225-0.127-0.448-0.266-0.682-0.382c-0.242-0.098-0.486-0.196-0.732-0.297
		c-0.247-0.101-0.495-0.199-0.747-0.3c-0.255-0.087-0.516-0.149-0.778-0.225c-0.525-0.134-1.051-0.326-1.599-0.386
		c-0.544-0.087-1.094-0.175-1.644-0.264l-0.052-0.01c-0.025-0.002,0.015,0-0.061-0.007l-0.024-0.001l-0.103-0.006l-0.205-0.01
		l-0.408-0.022l-0.821-0.043c-0.561,0.008-1.152,0.074-1.722,0.113c-0.566,0.07-1.11,0.198-1.659,0.294
		c-0.542,0.123-1.066,0.301-1.588,0.454c-0.512,0.176-1.003,0.392-1.492,0.582c-0.482,0.21-0.941,0.446-1.393,0.673
		c-0.445,0.234-0.861,0.499-1.275,0.737c-0.812,0.505-1.549,1.026-2.199,1.544c-0.654,0.511-1.23,1.011-1.717,1.475
		c-0.496,0.455-0.904,0.877-1.229,1.232c-0.33,0.349-0.569,0.646-0.732,0.843c-0.162,0.203-0.246,0.308-0.246,0.308
		s0.398-0.379,1.133-0.987c0.365-0.309,0.822-0.667,1.351-1.067c0.528-0.401,1.14-0.829,1.815-1.28
		c0.68-0.446,1.434-0.895,2.244-1.342c0.416-0.206,0.83-0.438,1.271-0.638c0.448-0.185,0.888-0.406,1.356-0.586
		c0.473-0.163,0.947-0.355,1.438-0.501c0.497-0.122,0.993-0.281,1.501-0.394c0.513-0.082,1.032-0.194,1.547-0.255
		c0.516-0.025,1.018-0.085,1.548-0.089l0.82,0.032l0.409,0.017l0.205,0.01l0.103,0.005l0.024,0.001
		c-0.059-0.006-0.002,0.001-0.009,0.001l0.05,0.008c0.525,0.078,1.051,0.153,1.572,0.23c0.527,0.056,1.017,0.223,1.52,0.326
		c0.248,0.064,0.5,0.114,0.741,0.185c0.236,0.086,0.47,0.172,0.703,0.255c0.232,0.084,0.462,0.169,0.691,0.251
		c0.22,0.1,0.428,0.214,0.642,0.317c0.211,0.105,0.422,0.208,0.63,0.312c0.188,0.131,0.374,0.26,0.558,0.386
		c0.18,0.134,0.382,0.241,0.535,0.392c0.16,0.149,0.318,0.292,0.472,0.438l0.233,0.211l0.193,0.237
		c0.128,0.159,0.254,0.314,0.378,0.465c0.218,0.324,0.41,0.651,0.578,0.969c0.135,0.331,0.306,0.636,0.38,0.952
		c0.047,0.154,0.092,0.305,0.135,0.451c0.036,0.147,0.059,0.293,0.088,0.431c0.065,0.277,0.086,0.537,0.109,0.772
		c0.083,0.943-0.018,1.491-0.018,1.491S124.846,72.416,124.901,72.168z"/>
	<path d="M77.95,69.78c-0.158-0.536-0.41-1.296-0.849-2.161c-0.218-0.434-0.475-0.895-0.802-1.354
		c-0.325-0.46-0.703-0.935-1.176-1.354c-0.471-0.421-1.021-0.819-1.67-1.076c-0.641-0.262-1.373-0.378-2.082-0.319
		c-0.364,0.036-0.678,0.094-1.057,0.215c-0.3,0.116-0.58,0.183-0.894,0.336c-0.646,0.303-1.195,0.687-1.649,1.137
		c-0.113,0.113-0.227,0.227-0.338,0.336c-0.099,0.12-0.191,0.244-0.285,0.368c-0.193,0.237-0.332,0.498-0.479,0.748
		c-0.286,0.5-0.465,1.009-0.607,1.479c-0.061,0.24-0.119,0.467-0.164,0.685c-0.031,0.221-0.07,0.427-0.092,0.622
		c-0.045,0.393-0.054,0.735-0.053,1.015c0.005,0.563,0.064,0.875,0.064,0.875s0.035-0.317,0.153-0.853
		c0.06-0.268,0.147-0.589,0.251-0.949c0.112-0.363,0.262-0.756,0.439-1.176c0.195-0.409,0.424-0.844,0.716-1.26
		c0.149-0.205,0.295-0.418,0.485-0.604c0.086-0.098,0.176-0.195,0.267-0.293l0.304-0.265c0.4-0.365,0.904-0.627,1.374-0.856
		c0.242-0.121,0.576-0.201,0.861-0.305c0.221-0.069,0.53-0.122,0.793-0.144c0.544-0.054,1.093,0.019,1.604,0.216
		c0.506,0.193,0.99,0.471,1.42,0.815c0.858,0.685,1.528,1.533,2.062,2.287c0.527,0.761,0.923,1.439,1.189,1.919
		c0.27,0.482,0.41,0.769,0.41,0.769S78.096,70.316,77.95,69.78z"/>
	
		<ellipse transform="matrix(-0.6097 0.7926 -0.7926 -0.6097 240.3666 51.0588)" fill="#FFFFFF" cx="107.613" cy="84.707" rx="16.87" ry="11.871"/>
	<path fill="#FFFFFF" d="M71.821,70.243c3.039,0.107,5.397,5.562,5.268,12.185c-0.131,6.624-2.698,11.907-5.736,11.804
		c-3.039-0.106-5.398-5.559-5.267-12.183C66.214,75.426,68.782,70.142,71.821,70.243z"/>
	<path fill="#D99762" d="M119.268,45.182c2.619-2.582,4.451-4.815,5.648-6.434c0.913,0.761,1.475,1.172,1.475,1.172
		s-2.182,3.281-8.17,8.659c-6.842,6.145-19.529,11.032-19.529,11.032S112.635,51.722,119.268,45.182z"/>
	<path fill="#EED4B1" d="M129.041,110.445l0.178,0.599c-8.26,13.304-17.523,29.805-20.475,34.969
		c-3.724,6.517-8.378,10.8-20.483,9.498c-4.024,3.594-8.052,5.633-16.106,5.434l4.937-6.924c0,0,7.073-9.497,9.217-13.127
		s6.519-11.173,6.519-11.173s-0.28,1.116-2.512,6.332c2.791-3.911,6.422-10.335,10.053-15.362
		c3.631-5.028,7.078-11.918,7.078-11.918s-0.186,2.515-0.652,5.68c1.397-2.605,2.235-5.866,2.979-8.232
		c0.745-2.367,4.47-7.596,8.319-10.123c-1.457,1.193-2.081,2.716-2.64,5.136c0.28-0.371,3.538-6.609,9.218-4.376
		c5.678,2.233,5.865,8.523,5.865,8.523s-0.161-0.604-1.502-3.091c-0.104-0.235-0.222-0.46-0.359-0.662
		c0.129,0.235,0.248,0.453,0.359,0.662C130.318,105.224,129.045,110.447,129.041,110.445z"/>
	<g>
		<path fill="#E2AA7D" d="M117.401,108.04c0.094-0.08,0.207-0.178,0.337-0.291c0.129-0.104,0.276-0.225,0.435-0.356
			c0.169-0.118,0.334-0.261,0.524-0.387c0.183-0.14,0.388-0.257,0.592-0.384c0.2-0.135,0.433-0.217,0.65-0.333
			c0.229-0.071,0.449-0.192,0.689-0.229c0.119-0.025,0.233-0.068,0.351-0.086c0.12-0.007,0.237-0.024,0.355-0.037
			c0.235-0.049,0.474-0.003,0.706-0.011c0.234,0.012,0.456,0.073,0.679,0.097c0.112,0.008,0.214,0.043,0.317,0.075
			c0.104,0.029,0.202,0.059,0.299,0.086c0.193,0.059,0.383,0.095,0.535,0.166c0.153,0.063,0.297,0.111,0.414,0.155
			c0.239,0.08,0.385,0.122,0.385,0.122s-0.088-0.114-0.258-0.307c-0.086-0.094-0.189-0.212-0.32-0.338
			c-0.121-0.139-0.288-0.254-0.475-0.378c-0.192-0.117-0.379-0.289-0.63-0.373c-0.245-0.091-0.498-0.229-0.79-0.279
			c-0.145-0.021-0.294-0.05-0.445-0.072l-0.229-0.035l-0.234,0.009c-0.158,0.005-0.318,0.01-0.477,0.023
			c-0.157,0.022-0.312,0.068-0.468,0.103c-0.317,0.063-0.597,0.212-0.88,0.339c-0.265,0.154-0.523,0.316-0.74,0.503
			c-0.228,0.174-0.421,0.373-0.588,0.57c-0.181,0.181-0.307,0.393-0.438,0.573c-0.486,0.746-0.596,1.34-0.596,1.34
			S117.212,108.204,117.401,108.04z"/>
		<path d="M51.1,143.576l44.732,3.291c-7.568,8.644-5.449,6.349-8.567,9.464c-5.284,4.627-12.048,5.498-23.396,3.834
			C51.495,158.349,49.358,152.732,51.1,143.576z"/>
		<path fill="#FFFFFF" d="M52.631,146.835c-0.018,0.141-0.039,0.348-0.046,0.612c-0.009,0.264,0,0.586,0.021,0.955
			c0.033,0.367,0.071,0.786,0.18,1.229c0.041,0.224,0.098,0.455,0.18,0.689c0.076,0.234,0.141,0.484,0.234,0.729
			c0.217,0.479,0.416,1.005,0.752,1.478c0.279,0.51,0.688,0.949,1.082,1.414c0.203,0.223,0.453,0.408,0.679,0.617
			c0.237,0.193,0.452,0.422,0.724,0.572c0.529,0.312,1.023,0.693,1.592,0.904c0.551,0.24,1.084,0.508,1.646,0.633
			c0.551,0.146,1.078,0.328,1.593,0.4c0.515,0.074,1.005,0.143,1.453,0.207c0.446,0.084,0.864,0.074,1.231,0.08
			s0.686,0.01,0.951,0.014c0.524,0,0.826,0,0.826,0s-0.299-0.039-0.82-0.107c-0.258-0.029-0.576-0.068-0.938-0.111
			c-0.359-0.045-0.77-0.082-1.206-0.186c-0.435-0.092-0.909-0.188-1.407-0.291c-0.502-0.107-0.996-0.322-1.527-0.473
			c-0.541-0.131-1.036-0.42-1.567-0.648c-0.545-0.207-1.006-0.578-1.505-0.877c-0.26-0.139-0.461-0.354-0.688-0.535
			c-0.213-0.195-0.453-0.363-0.646-0.574c-0.369-0.439-0.784-0.83-1.057-1.305c-0.328-0.442-0.553-0.925-0.789-1.369
			c-0.105-0.231-0.182-0.463-0.271-0.686c-0.093-0.219-0.16-0.439-0.214-0.654c-0.127-0.426-0.209-0.825-0.276-1.182
			c-0.059-0.356-0.1-0.672-0.117-0.932c-0.019-0.259-0.035-0.465-0.035-0.607c-0.004-0.141,0-0.216,0-0.216
			S52.649,146.692,52.631,146.835z"/>
	</g>
	
		<linearGradient id="SVGID_11_" gradientUnits="userSpaceOnUse" x1="-1686.5591" y1="522.5994" x2="-1671.6151" y2="530.2808" gradientTransform="matrix(1 0 0 1 1793.3252 -487.1836)">
		<stop  offset="0" style="stop-color:#E2AA7D"/>
		<stop  offset="1" style="stop-color:#D99762"/>
	</linearGradient>
	<path fill="url(#SVGID_11_)" d="M76.116,54.445L72.8,49.25c3.599-3.016,7.647-6.649,11.694-11.844
		c5.668-7.274,18.156-23.742,22.905-34.217c-1.677,6.984-1.397,11.173-0.698,12.988c0.698-8.24,5.865-14.245,5.865-14.245
		s-3.771,15.503,1.116,23.882c4.889,8.378,12.71,14.104,12.71,14.104S116.058,54.026,96.924,60.31
		C77.651,61.287,76.114,54.445,76.116,54.445z"/>
	
		<linearGradient id="SVGID_12_" gradientUnits="userSpaceOnUse" x1="-1699.2695" y1="640.6423" x2="-1681.3936" y2="616.3422" gradientTransform="matrix(1 0 0 1 1793.3252 -487.1836)">
		<stop  offset="0" style="stop-color:#CF8042"/>
		<stop  offset="0.9742" style="stop-color:#B86D2A"/>
	</linearGradient>
	<path fill="url(#SVGID_12_)" d="M100.835,149.271c-3.354,3.352-9.479,2.724-9.479,2.724s5.329-5.994,8.487-10.188
		c3.158-4.196,9.459-13.541,9.459-13.541C109.022,129.942,104.186,145.919,100.835,149.271z"/>
	<defs>
		<filter id="Adobe_OpacityMaskFilter" filterUnits="userSpaceOnUse" x="88.265" y="100.789" width="42.269" height="54.956">
			<feColorMatrix  type="matrix" values="1 0 0 0 0  0 1 0 0 0  0 0 1 0 0  0 0 0 1 0"/>
		</filter>
	</defs>
	<mask maskUnits="userSpaceOnUse" x="88.265" y="100.789" width="42.269" height="54.956" id="SVGID_13_">
		<g filter="url(#Adobe_OpacityMaskFilter)">
			
				<linearGradient id="SVGID_14_" gradientUnits="userSpaceOnUse" x1="-1673.2607" y1="611.0662" x2="-1663.2054" y2="605.7593" gradientTransform="matrix(1 0 0 1 1793.3252 -487.1836)">
				<stop  offset="0.0024" style="stop-color:#FFFFFF"/>
				<stop  offset="1" style="stop-color:#000000"/>
			</linearGradient>
			<polygon opacity="0.8" fill="url(#SVGID_14_)" enable-background="new    " points="135.973,103.708 120.739,94.536 
				84.766,154.289 100.001,163.461 			"/>
		</g>
	</mask>
	<path opacity="0.4" mask="url(#SVGID_13_)" fill="#D99762" enable-background="new    " d="M130.534,105.378
		c0,0-0.161-0.604-1.502-3.091c-0.111-0.209-0.23-0.427-0.359-0.662c0.129,0.235,0.248,0.453,0.359,0.662
		c1.286,2.937,0.013,8.159,0.013,8.159l0.178,0.599c-8.26,13.304-17.523,29.805-20.475,34.969c-3.724,6.517-8.378,10.8-20.483,9.498
		c0,0,8.329-8.636,16.945-21.042c9.191-13.237,15.734-27.373,15.734-27.373l8.223-6.308
		C130.465,103.095,130.534,105.378,130.534,105.378z"/>
	<g>
		<ellipse transform="matrix(-0.5796 0.8149 -0.8149 -0.5796 229.0179 49.5369)" cx="101.731" cy="83.844" rx="9.929" ry="6.436"/>
		<ellipse transform="matrix(0.0724 0.9974 -0.9974 0.0724 147.2358 7.0354)" cx="69.835" cy="82.676" rx="5.784" ry="3.749"/>
		
			<ellipse transform="matrix(-0.6353 0.7723 -0.7723 -0.6353 226.4961 56.5398)" fill="#FFFFFF" cx="99.898" cy="81.75" rx="2.086" ry="1.537"/>
		
			<ellipse transform="matrix(-0.0596 0.9982 -0.9982 -0.0596 154.0503 19.3461)" fill="#FFFFFF" cx="67.913" cy="82.235" rx="1.245" ry="0.919"/>
	</g>
</g>
</svg>
